<svg xmlns:dc="http://purl.org/dc/elements/1.1/" xmlns:cc="http://creativecommons.org/ns#" xmlns:rdf="http://www.w3.org/1999/02/22-rdf-syntax-ns#" xmlns:svg="http://www.w3.org/2000/svg" xmlns="http://www.w3.org/2000/svg" xmlns:sodipodi="http://sodipodi.sourceforge.net/DTD/sodipodi-0.dtd" xmlns:inkscape="http://www.inkscape.org/namespaces/inkscape" version="1.1" x="0px" y="0px" viewBox="0 0 100 125"><g transform="translate(0,-952.36218)"><path style="color:#000000;enable-background:accumulate;" d="m 12,960.36217 c -2.216,0 -4,1.7841 -4,4.0003 0,2.2161 1.784,4.0002 4,4.0002 l 76,0 c 2.216,0 4,-1.7841 4,-4.0002 0,-2.2162 -1.784,-4.0003 -4,-4.0003 l -76,0 z m 1,10.0006 0,47.00313 c 0,0.554 0.446,1 1,1 l 72,0 c 0.554,0 1,-0.446 1,-1 l 0,-47.00313 -74,0 z m 37,8.0006 c 1.1046,0 2,0.8954 2,2.0001 l 0,12.00082 12,0 c 1.1046,0 2,0.8954 2,2.0001 0,1.1047 -0.8954,2.0001 -2,2.0001 l -12,0 0,12.00081 c 0,1.1047 -0.8954,2.0001 -2,2.0001 -1.1046,0 -2,-0.8954 -2,-2.0001 l 0,-12.00081 -12,0 c -1.1046,0 -2,-0.8954 -2,-2.0001 0,-1.1047 0.8954,-2.0001 2,-2.0001 l 12,0 0,-12.00082 c 0,-1.1047 0.8954,-2.0001 2,-2.0001 z m -2,42.00273 0,5.2191 -14.5,15.4697 c -0.71104,0.7682 -0.64321,2.1015 0.125,2.8127 0.76821,0.7111 2.10146,0.6432 2.8125,-0.125 L 48,1031.398 l 0,6.9692 c 0,1.1047 0.89543,2.0001 2,2.0001 1.10457,0 2,-0.8954 2,-2.0001 l 0,-6.9692 11.5625,12.3446 c 0.71103,0.7682 2.04429,0.8361 2.8125,0.125 0.76821,-0.7112 0.83604,-2.0445 0.125,-2.8127 l -14.5,-15.4697 0,-5.2191 -4,0 z" fill="#000000" fill-opacity="1" fill-rule="nonzero" stroke="none" marker="none" visibility="visible" display="inline" overflow="visible"/></g></svg>